<?xml version="1.0" standalone="no"?>
<!DOCTYPE svg PUBLIC "-//W3C//DTD SVG 1.1//EN" "http://www.w3.org/Graphics/SVG/1.1/DTD/svg11.dtd" >
<svg xmlns="http://www.w3.org/2000/svg">
<metadata>Generated by IcoMoon</metadata>
<defs>
<font id="icomoon" horiz-adv-x="1024">
<font-face units-per-em="1024" ascent="960" descent="-64" />
<missing-glyph horiz-adv-x="1024" />
<glyph unicode="&#x20;" horiz-adv-x="512" d="" />
<glyph unicode="&#xe900;" glyph-name="account_tree_FILL0_wght200_GRAD0_opsz24" d="M661.333 85.333v128h-170.667v426.667h-128v-128h-256v298.667h256v-128h298.667v128h256v-298.667h-256v128h-128v-384h128v128h256v-298.667h-256zM149.333 768v0zM704 341.333v0zM704 768v0zM704 554.667h170.667v213.333h-170.667v-213.333zM704 128h170.667v213.333h-170.667v-213.333zM149.333 554.667h170.667v213.333h-170.667v-213.333z" />
<glyph unicode="&#xe901;" glyph-name="admin_panel_settings_FILL0_wght200_GRAD0_opsz24" d="M725.333 234.667q26.667 0 45.333 18.667t18.667 45.333-18.667 45.333-45.333 18.667-45.333-18.667-18.667-45.333 18.667-45.333 45.333-18.667zM725.333 106.667q33.887 0 61.211 15.056t45.21 40.657q-24.287 14.687-50.954 22.154t-55.467 7.467-55.467-7.467-50.954-22.154q17.887-25.6 45.21-40.657t61.211-15.056zM512 65.641q-128.575 38.154-213.62 155.775t-85.046 264.985v230.729l298.667 111.589 298.667-111.589v-241.313q-9.6 3.611-21.087 6.442-11.487 2.83-21.58 5.21v200.287l-256 95.18-256-95.18v-201.354q0-63.262 18.667-121.189 18.667-57.929 50.871-106.544t76.185-84.964 93.785-55.385l2.462 0.82q5.169-12.8 12.882-24.861t17.477-22.646q-4.349-1.642-8.164-2.995t-8.164-2.995zM725.333 64q-71.302 0-120.985 49.682t-49.682 120.985 49.682 120.985 120.985 49.682 120.985-49.682 49.682-120.985-49.682-120.985-120.985-49.682z" />
<glyph unicode="&#xe902;" glyph-name="backup_FILL0_wght200_GRAD0_opsz24" d="M277.333 149.333q-79.836 0-135.918 55.527t-56.082 135.734q0 75.815 52.185 131.446t122.585 59.815q14.359 93.21 85.744 154.010t166.154 60.8q106.972 0 181.486-74.514t74.514-181.486v-42.667h26.256q61.293-1.969 102.852-45.005t41.558-104.329q0-62.769-42.461-106.051t-105.232-43.282h-231.385q-29.456 0-49.189 19.733t-19.733 49.189v247.631l-89.6-89.107-30.195 29.374 141.129 141.129 141.129-141.129-30.195-29.374-89.6 89.107v-247.631q0-9.845 8.205-18.051t18.051-8.205h229.744q44.8 0 75.733 30.933t30.933 75.733-30.933 75.733-75.733 30.933h-64v85.333q0 88.533-62.4 150.933t-150.933 62.4-150.933-62.4-62.4-150.933h-22.974q-59.406 0-103.549-43.733-44.144-43.733-44.144-105.6t43.733-105.6 105.6-43.733h106.667v-42.667h-106.667z" />
<glyph unicode="&#xe903;" glyph-name="cell_tower_FILL0_wght200_GRAD0_opsz24" d="M233.682 255.015q-59.159 59.898-87.344 131.2t-28.185 147.118 28.185 147.118 87.344 131.2l28.225-28.225q-52.841-53.662-78.441-118.277t-25.6-131.815 25.6-131.815 78.441-118.277l-28.225-28.225zM332.8 354.133q-36.677 38.318-55.262 84.841t-18.585 94.359 18.585 94.359 55.262 84.841l28.226-28.226q-31.18-30.441-46.77-70.318t-15.589-80.656q0-40.041 15.18-79.507t47.18-71.467l-28.226-28.226zM344.615 91.897l124.307 372.924q-18.707 10.831-28.841 29.867t-10.133 38.646q0 34.133 23.958 58.093 23.959 23.958 58.093 23.958t58.093-23.958q23.958-23.959 23.958-58.093 0-19.611-9.313-37.826t-29.661-30.687l124.307-372.924h-44.307l-27.733 85.333h-190.442l-27.158-85.333h-45.129zM431.508 219.898h160.983l-80.492 242.871-80.492-242.871zM691.2 354.133l-28.226 28.226q31.18 30.441 46.77 70.318t15.589 80.656q0 37.58-15.589 77.867t-46.77 73.107l28.226 28.226q36.677-38.318 54.893-85.662 18.215-47.343 18.954-94.358 0-47.836-18.174-93.949t-55.673-84.431zM790.318 255.015l-28.225 28.225q52.841 53.662 78.441 118.277t25.6 131.815-25.6 131.815-78.441 118.277l28.225 28.225q58.339-59.898 86.933-131.2t28.595-147.118-27.405-147.118-88.124-131.2z" />
<glyph unicode="&#xe904;" glyph-name="cloud_download_FILL0_wght200_GRAD0_opsz24" d="M277.333 149.333q-79.836 0-135.918 55.713t-56.082 135.549q0 73.354 50.133 130.215t124.636 61.046q10.749 79.261 79.589 145.723 68.842 66.462 150.975 66.462 17.149 0 29.908-12.759t12.758-29.908v-310.645l87.959 87.467 30.194-30.195-139.487-139.487-139.487 139.487 30.194 30.195 87.959-87.467v310.645q-80.246-3.445-136.123-69.785-55.877-66.338-55.877-140.923h-21.333q-61.867 0-105.6-43.733t-43.733-105.6 43.733-105.6 105.6-43.733h512q44.8 0 75.733 30.933t30.933 75.733-30.933 75.733-75.733 30.933h-64v85.333q0 52.841-23.467 97.107t-61.867 73.559v50.79q60.062-33.231 94.031-92.759t33.969-128.698v-42.667h26.256q61.293-1.969 102.852-45.005t41.558-104.329q0-62.769-43.282-106.051t-106.051-43.282h-512z" />
<glyph unicode="&#xe905;" glyph-name="cloud_sync_FILL0_wght200_GRAD0_opsz24" d="M198.564 134.564v42.667h131.856q-76.554 66.625-107.487 131.118t-30.933 136.369q0 104.698 59.815 188.102 59.815 83.406 153.518 116.308v-45.293q-76.307-31.589-123.487-102.523t-47.18-156.595q0-64.985 27.446-119.671t97.271-116.144v129.149h42.667v-203.487h-203.487zM640 128q-43.487 0-75.077 31.589-31.589 31.59-31.589 75.077 0 42.995 29.046 73.642 29.045 30.645 76.964 32.779 15.671 37.58 48.943 61.58 33.273 24 79.713 24 52.431 0 91.036-34.749t44.677-93.251h13.127q35.775 0 60.801-24.369 25.025-24.369 25.025-59.898 0-35.775-24.78-61.087t-60.554-25.313h-277.333zM785.067 502.154q-10.749 48.657-35.775 89.271t-84.676 94.851v-128.327h-42.667v203.487h203.487v-42.667h-131.856q68.020-60.225 96.123-111.343 28.102-51.119 38.277-105.273h-42.913zM640 170.667h277.333q17.558 0 30.113 12.554 12.554 12.555 12.554 30.113t-12.554 30.113-30.113 12.554h-53.333v32q0 39.958-28.020 67.98-28.021 28.020-67.98 28.020t-66.749-24.329q-26.789-24.327-28.431-58.543v-2.462h-32.82q-26.338 0-45.169-18.831t-18.831-45.169 18.831-45.169 45.169-18.831z" />
<glyph unicode="&#xe906;" glyph-name="cloud_upload_FILL0_wght200_GRAD0_opsz24" d="M277.333 149.333q-79.836 0-135.918 55.527t-56.082 135.734q0 75.815 52.185 131.446t122.585 59.815q14.359 93.21 85.744 154.010t166.154 60.8q106.972 0 181.486-74.514t74.514-181.486v-42.667h26.256q61.293-1.969 102.852-45.005t41.558-104.329q0-62.769-42.461-106.051t-105.232-43.282h-231.385q-29.456 0-49.189 19.733t-19.733 49.189v247.631l-89.6-89.107-30.195 29.374 141.129 141.129 141.129-141.129-30.195-29.374-89.6 89.107v-247.631q0-9.845 8.205-18.051t18.051-8.205h229.744q44.8 0 75.733 30.933t30.933 75.733-30.933 75.733-75.733 30.933h-64v85.333q0 88.533-62.4 150.933t-150.933 62.4-150.933-62.4-62.4-150.933h-22.974q-59.406 0-103.549-43.733-44.144-43.733-44.144-105.6t43.733-105.6 105.6-43.733h106.667v-42.667h-106.667z" />
<glyph unicode="&#xe907;" glyph-name="database_FILL0_wght200_GRAD0_opsz24" d="M512 106.667q-149.58 0-245.457 38.113t-95.876 98.092v418.462q0 53.169 99.815 90.585t241.518 37.415 241.518-37.415 99.815-90.585v-418.462q0-59.98-95.876-98.092-95.877-38.113-245.457-38.113zM512 580.677q91.651 0 184.78 25.558 93.129 25.559 111.425 55.671-17.476 31.755-109.661 58.257t-186.544 26.502q-92.964 0-186.298-25.559-93.333-25.558-111.549-55.918 17.395-32 109.908-58.256t187.938-26.256zM512 365.949q43.98 0 86.4 4.267t81.107 12.677 71.877 20.963q33.189 12.555 59.282 28.308v174.769q-26.093-15.755-59.282-28.308t-71.877-20.964-81.107-12.676-86.4-4.267q-45.62 0-88.698 4.676-43.076 4.677-81.354 13.088t-70.933 20.554-57.682 27.898v-174.769q25.026-15.754 57.682-27.898t70.933-20.554 81.354-13.087 88.698-4.677zM512 149.333q54.811 0 104.246 6.236t88.82 17.682 66.954 27.323 38.646 34.339v154.585q-26.093-15.755-59.282-28.308t-71.877-20.964-81.107-12.676-86.4-4.267q-45.62 0-88.698 4.676-43.076 4.677-81.354 13.087t-70.933 20.555q-32.656 12.143-57.682 27.898v-154.831q11.077-19.282 38.523-34.626t66.831-26.789 88.944-17.682q49.558-6.236 104.369-6.236z" />
<glyph unicode="&#xe908;" glyph-name="group_add_FILL0_wght200_GRAD0_opsz24" d="M541.538 476.389q23.549 25.108 33.108 58.175t9.558 67.692-9.558 67.693q-9.559 33.067-33.108 58.175 48.411-4.431 80-40.533 31.59-36.103 31.59-85.334t-31.59-85.333q-31.589-36.102-80-40.533zM754.871 165.743v72.206q0 31.381-11.323 59.711t-35.775 46.791q43.734-13.456 79.877-38.523 36.144-25.067 36.144-67.98v-72.206h-68.924zM823.795 426.667v85.333h-85.333v42.667h85.333v85.333h42.667v-85.333h85.333v-42.667h-85.333v-85.333h-42.667zM370.871 474.256q-52.8 0-90.4 37.6t-37.6 90.4q0 52.801 37.6 90.401t90.4 37.6 90.4-37.6 37.6-90.401-37.6-90.4-90.4-37.6zM72.205 165.743v70.237q0 26.42 15.385 49.436t41.395 35.733q60.389 28.964 120.861 43.446 60.473 14.482 121.026 14.482t121.026-14.482q60.471-14.482 120.862-43.446 26.010-12.718 41.394-35.733t15.385-49.436v-70.237h-597.333zM370.871 516.923q35.2 0 60.267 25.067t25.067 60.267-25.067 60.267-60.267 25.067-60.267-25.067-25.067-60.267 25.067-60.267 60.267-25.067zM114.871 208.411h512v27.569q0 14.194-9.149 26.667-9.149 12.471-25.312 21.087-52.677 25.518-108.625 39.098-55.949 13.58-112.914 13.58t-112.913-13.58-108.625-39.098q-16.164-8.615-25.313-21.087t-9.149-26.667v-27.569z" />
<glyph unicode="&#xe909;" glyph-name="lan_FILL0_wght200_GRAD0_opsz24" d="M149.333 42.667v256h128v170.667h213.333v128h-128v256h298.667v-256h-128v-128h213.333v-170.667h128v-256h-298.667v256h128v128h-384v-128h128v-256h-298.667zM405.333 640h213.333v170.667h-213.333v-170.667zM192 85.333h213.333v170.667h-213.333v-170.667zM618.667 85.333h213.333v170.667h-213.333v-170.667z" />
<glyph unicode="&#xe90a;" glyph-name="lock_FILL0_wght200_GRAD0_opsz24" d="M282.256 64q-28.636 0-48.78 20.143-20.143 20.144-20.143 48.78v374.155q0 28.636 20.143 48.78 20.144 20.143 48.78 20.143h59.077v85.333q0 71.302 49.682 120.985t120.985 49.682 120.985-49.682 49.682-120.985v-85.333h59.077q28.636 0 48.78-20.143t20.143-48.78v-374.155q0-28.636-20.143-48.78t-48.78-20.143h-459.488zM282.256 106.667h459.488q11.487 0 18.871 7.385t7.385 18.871v374.155q0 11.487-7.385 18.871t-18.871 7.385h-459.488q-11.487 0-18.871-7.385t-7.385-18.871v-374.155q0-11.487 7.385-18.871t18.871-7.385zM512 256q26.995 0 45.498 18.502t18.502 45.498-18.502 45.498-45.498 18.502-45.498-18.502-18.502-45.498 18.502-45.498 45.498-18.502zM384 576h256v85.333q0 53.333-37.333 90.667t-90.667 37.333-90.667-37.333-37.333-90.667v-85.333zM256 106.667v0z" />
<glyph unicode="&#xe90b;" glyph-name="lock_reset_FILL0_wght200_GRAD0_opsz24" d="M554.667 106.667q-65.805 0-125.99 24.41-60.185 24.411-108.349 68.226l31.262 30.442q42.175-37.826 92.637-59.118t110.441-21.293q124.554 0 211.611 87.056t87.056 211.611q0 123.733-87.467 211.2t-211.2 87.467-211.2-87.467-87.467-211.2v-59.158l91.815 91.815 30.441-29.375-143.589-143.59-143.59 143.59 30.442 29.375 91.815-92.882v60.225q0 71.038 26.707 133.078t73.108 108.439 108.425 73.108q62.026 26.707 133.046 26.707 71.022 0 133.093-26.707t108.471-73.108 73.108-108.416q26.707-62.017 26.707-133.028 0-142.022-99.555-241.715-99.556-99.692-241.778-99.692zM469.333 287.18q-16.041 0-26.893 10.851t-10.851 26.892v128q0 16.042 12.267 26.893t30.4 10.851v47.589q0 33.17 23.621 56.79 23.62 23.62 56.789 23.62t56.789-23.62q23.621-23.62 23.621-56.79v-47.589q18.133 0 30.4-10.851t12.267-26.893v-128q0-16.041-10.851-26.892t-26.893-10.851h-170.667zM507.077 490.667h95.179v47.273q0 20.092-13.907 33.999t-33.682 13.908-33.682-13.908q-13.907-13.907-13.907-33.999v-47.273z" />
<glyph unicode="&#xe90c;" glyph-name="monitoring_FILL0_wght200_GRAD0_opsz24" d="M149.333 85.333v54.975l42.667 42.667v-97.642h-42.667zM320 85.333v225.642l42.667 42.667v-268.308h-42.667zM490.667 85.333v268.308l42.667-43.733v-224.575h-42.667zM661.333 85.333v224.575l42.667 42.667v-267.242h-42.667zM832 85.333v396.308l42.667 42.667v-438.975h-42.667zM149.333 336.492v59.817l277.333 277.333 170.667-170.667 277.333 277.333v-59.817l-277.333-277.333-170.667 170.667-277.333-277.333z" />
<glyph unicode="&#xe90d;" glyph-name="network_check_FILL0_wght200_GRAD0_opsz24" d="M89.6 486.4l-43.651 43.651q89.107 89.6 208 141.621 118.892 52.020 258.051 52.020 19.856 0 44.226-1.189t40.123-3.57l-29.538-61.374q-15.262 2.133-28.186 2.954t-26.625 0.82q-123.733 0-232-46.4t-190.4-128.533zM270.933 305.067l-43.651 44.144q47.425 47.425 108.758 77.58 61.333 30.154 143.795 40.41l-32.164-68.102q-55.549-10.339-100.676-36.718-45.129-26.38-76.062-57.313zM491.98 136.041q-22.155 7.631-33.19 29.088t0.042 45.251l216.615 474.585q2.625 4.431 7.343 7.098 4.719 2.667 11.037 0.287 6.071-2.38 9.107-6.974t0.902-10.913l-138.667-501.99q-6.892-24.533-27.898-34.42t-45.292-2.011zM753.067 305.067q-10.502 10.502-22.892 21.005-12.39 10.502-26.667 19.364l17.723 63.837q19.938-12.718 39.754-28.431t35.733-31.631l-43.651-44.144zM934.4 486.4q-32 32-73.313 62.359-41.312 30.358-87.015 52.512l16.739 60.719q55.138-26.093 100.020-57.846t87.22-74.093l-43.651-43.651z" />
<glyph unicode="&#xe90e;" glyph-name="network_manage_FILL0_wght200_GRAD0_opsz24" d="M407.549 168.698q16.902 16.902 37.62 27.733t44.759 13.702q-1.231-16.164-0.329-32.327t4.185-32.575q3.282-17.395 7.836-33.723t12.267-31.344l-9.025-9.026-97.313 97.559zM270.933 305.067l-43.651 44.144q57.107 57.107 130.543 87.795 73.437 30.687 154.175 30.687 35.856 0 71.22-6.687t68.103-18.995q-19.857-6.893-38.524-18.215-18.667-11.324-34.257-25.518-16.163 3.527-32.861 5.292t-33.682 1.764q-68.267 0-130.667-26.133t-110.4-74.133zM89.6 486.4l-43.651 43.651q93.127 93.621 213.62 143.631t252.431 50.011 252.431-50.011q120.493-50.010 213.62-143.631l-43.651-43.651q-84.267 84.267-193.6 129.6t-228.8 45.333-228.8-45.333-193.6-129.6zM777.026 362.667l4.594-37.744q24.288-5.333 40-13.661t29.908-25.067l35.611 14.277 22.974-34.79-29.374-24.615q7.056-22.646 7.056-44.144 0-21.497-7.056-44.143l29.374-24.615-22.974-34.79-35.611 14.277q-14.195-15.918-29.908-24.656-15.712-8.739-40-14.073l-4.594-37.743h-42.668l-4.594 37.743q-24.287 5.333-40 14.073-15.713 8.738-29.908 24.656l-35.61-14.277-22.975 34.79 29.375 24.615q-7.057 22.646-7.057 44.143t7.057 44.144l-29.375 24.615 22.975 34.79 35.61-14.277q14.195 16.738 29.908 25.067 15.713 8.327 40 13.661l4.594 37.744h42.668zM755.693 288.82q-37.662 0-64.78-27.118t-27.118-64.78 27.118-64.779 64.78-27.118 64.779 27.118 27.118 64.779q0 37.662-27.118 64.78t-64.779 27.118z" />
<glyph unicode="&#xe90f;" glyph-name="podcasts_FILL0_wght200_GRAD0_opsz24" d="M490.667 64v347.323q-10.995 6.811-16.164 15.852-5.169 9.042-5.169 20.925 0 17.050 12.758 29.809 12.759 12.758 29.908 12.758t29.908-12.758q12.758-12.759 12.758-29.712 0-11.815-5.169-21.062t-16.164-15.811v-347.323h-42.667zM247.958 169.025q-55.876 52.924-87.918 124.509-32.041 71.585-32.041 154.221 0 79.754 30.228 149.873 30.229 70.119 82.050 121.989t121.874 82.126q70.054 30.257 149.705 30.257t149.771-30.25 121.989-82.106 82.126-121.958 30.257-149.808q0-82.587-32.041-154.381t-87.918-124.473l-29.375 30.195q49.067 46.78 77.867 111.101t28.8 137.679q0 142.933-99.2 242.133t-242.133 99.2-242.133-99.2-99.2-242.133q0-73.6 28.8-137.6t78.933-110.933l-30.442-30.442zM368.492 289.558q-32.41 29.457-51.118 70.212t-18.707 88.229q0 88.889 62.165 151.111t150.975 62.222 151.168-62.317 62.358-151.342q0-47.183-18.707-88.044t-51.118-70.073l-30.442 30.442q26.667 24.533 42.133 57.6t15.467 70.4q0 70.4-50.133 120.533t-120.533 50.133-120.533-50.133-50.133-120.533q0-38.4 15.467-70.933t42.133-57.067l-30.442-30.442z" />
<glyph unicode="&#xe910;" glyph-name="query_stats_FILL0_wght200_GRAD0_opsz24" d="M106.256 214.892l-34.871 25.519 187.077 299.487 128-149.333 169.025 274.051 87.549-132.020q-12.225-1.888-22.605-4.226t-21.046-5.949l-42.338 63.098-163.775-266.749-129.067 150.4-157.949-254.277zM920.533 9.025l-146.462 144.821q-18.871-14.113-41.312-21.58t-46.893-7.467q-62.769 0-106.051 43.282t-43.282 106.051 43.282 106.051 106.051 43.282 106.051-43.282 43.282-106.051q0-25.271-7.876-48.123t-22.811-41.97l146.462-144.574-30.442-30.442zM685.867 167.467q44.8 0 75.733 30.933t30.933 75.733-30.933 75.733-75.733 30.933-75.733-30.933-30.933-75.733 30.933-75.733 75.733-30.933zM764.389 523.569q-10.42 3.611-20.8 6.071-10.379 2.462-21.538 3.529l195.693 311.139 34.871-25.519-188.226-295.22z" />
<glyph unicode="&#xe911;" glyph-name="safety_check_FILL0_wght200_GRAD0_opsz24" d="M512 276.513q71.302 0 120.985 49.682t49.682 120.985-49.682 120.985-120.985 49.682-120.985-49.682-49.682-120.985 49.682-120.985 120.985-49.682zM582.4 353.477l-86.811 86.81v129.969h32.821v-116.185l77.292-77.292-23.302-23.302zM512 65.641q-128.575 38.154-213.62 155.775t-85.046 264.985v230.729l298.667 111.589 298.667-111.589v-230.729q0-147.364-85.046-264.985-85.045-117.621-213.62-155.775zM512 110.933q110.933 35.2 183.467 140.8t72.533 234.667v201.6l-256 95.18-256-95.18v-201.6q0-129.067 72.533-234.667t183.467-140.8z" />
<glyph unicode="&#xe912;" glyph-name="schema_FILL0_wght200_GRAD0_opsz24" d="M208.41 16.41v180.514h90.257v160.819h-90.257v180.514h90.257v160.819h-90.257v180.514h223.181v-180.514h-90.257v-160.819h90.257v-68.924h203.486v68.924h223.181v-180.514h-223.181v68.924h-203.486v-68.924h-90.257v-160.819h90.257v-180.514h-223.181zM251.077 59.077h137.845v95.179h-137.845v-95.179zM251.077 400.411h137.845v95.179h-137.845v-95.179zM677.744 400.411h137.845v95.179h-137.845v-95.179zM251.077 741.744h137.845v95.179h-137.845v-95.179z" />
<glyph unicode="&#xe913;" glyph-name="settings_account_box_FILL0_wght200_GRAD0_opsz24" d="M625.231 27.898q-22.564 0-38.359 15.794-15.794 15.795-15.794 38.359v252.718q0 22.564 15.794 38.359 15.795 15.794 38.359 15.794h252.718q22.564 0 38.359-15.794 15.794-15.795 15.794-38.359v-252.718q0-22.564-15.794-38.359-15.795-15.794-38.359-15.794h-252.718zM625.231 82.051h252.718v29.21q-22.564 28.144-55.22 44.595t-71.139 16.451q-38.481 0-71.138-16.451-32.656-16.451-55.22-44.595v-29.21zM751.589 208.411q22.564 0 38.359 15.794t15.795 38.359-15.795 38.358q-15.795 15.795-38.359 15.795-22.563 0-38.358-15.795t-15.795-38.358 15.795-38.359q15.795-15.794 38.358-15.794zM510.851 554.667q-44.636 0-75.651-31.015t-31.015-75.651q0-33.969 17.723-60.062t47.426-38.564v48.411q-10.174 8.533-16.329 22.687-6.154 14.155-6.154 27.529 0 26.667 18.667 45.333t45.333 18.667q14.933 0 27.077-5.867t20.676-15.467h49.231q-12.225 28.882-38.030 46.442-25.806 17.558-58.955 17.558zM432.41 64l-15.425 123.405q-20.431 6.154-44.185 19.364t-40.411 28.307l-113.805-48.41-79.59 138.667 98.38 74.175q-1.887 11.569-3.118 23.836t-1.231 23.836q0 10.749 1.231 22.605t3.118 26.707l-98.38 74.175 79.59 137.026 112.985-47.59q19.118 15.918 41.354 28.718t43.242 19.775l16.245 123.405h159.181l15.425-124.225q24.533-8.615 43.364-19.775 18.831-11.158 38.769-27.898l116.267 47.59 79.59-137.026-97.231-73.436q0.82-1.642 0.82-3.282 0-1.642 0.82-3.282h-50.298q-1.067 5.333-1.723 9.969-0.657 4.636-2.79 9.969l95.015 71.795-42.42 72.533-108.882-45.62q-19.364 21.251-50.913 39.836t-59.692 24.656l-13.046 115.529h-85.087l-13.293-114.707q-32.246-6.893-59.282-22.195t-53.785-42.051l-106.42 44.554-42.42-72.533 92.554-69.087q-5.333-14.359-7.467-31.18t-2.133-34.954q0-16.246 2.133-32.246t6.646-31.18l-91.733-70.154 42.42-72.533 105.6 44.8q25.6-25.846 58.011-42.749t68.923-24.698v-154.42h-36.924z" />
<glyph unicode="&#xe914;" glyph-name="signal_disconnected_FILL0_wght200_GRAD0_opsz24" d="M707.446 373.087l-28.473 28.473q21.826 28.554 34.093 62.030t12.267 69.744q0 42.667-15.836 81.887t-46.524 69.087l28.226 28.226q35.611-36.431 54.729-82.707 19.118-46.277 19.118-97.313 0-43.815-14.441-84.882t-43.159-74.544zM584.615 495.918l-110.031 110.031q8.698 5.005 18.051 7.22t19.364 2.215q34.133 0 58.093-23.958 23.958-23.959 23.958-58.093 0-10.011-2.215-19.364t-7.22-18.051zM807.385 273.395l-28.225 28.225q41.845 48 64.41 107.857t22.564 123.856q0 70.4-26.954 135.18t-77.087 114.913l28.225 28.225q55.385-56.123 85.457-127.836t30.071-150.482q0-72.369-24.738-139.693t-73.724-120.245zM846.195 53.169l-312.862 312.861v-264.287h-42.667v306.955l-182.154 181.907q-4.924-14.441-7.385-28.636t-2.462-28.636q0-42.667 15.836-81.887t46.524-69.087l-28.226-28.226q-35.611 35.611-54.729 81.887-19.118 46.277-19.118 97.313 0 23.056 3.774 45.456t14.031 43.815l-75.733 75.733q-21.579-38.318-32.369-79.507-10.789-41.19-10.789-85.498 0-70.4 26.954-135.18t77.087-114.913l-28.225-28.225q-55.385 56.123-85.457 127.836-30.071 71.713-30.071 150.482 0 51.856 13.005 101.292 13.006 49.437 39.836 93.744l-53.825 53.826 30.195 30.441 729.271-729.271-30.441-30.195z" />
<glyph unicode="&#xe915;" glyph-name="support_agent_FILL0_wght200_GRAD0_opsz24" d="M502.154 106.667v42.667h282.257q10.667 0 18.461 6.564t7.795 17.231v293.907q0 119.877-88.164 200.246t-210.502 80.369-210.502-80.369-88.164-200.246v-242.215h-21.333q-26.175 0-45.087 17.682-18.913 17.682-18.913 43.856v80.411q0 19.118 12.431 33.929 12.43 14.811 30.236 24.082l0.738 52.431q1.969 66.789 30.236 123.733t74.421 99.118 107.241 65.723 128.698 23.549 128.575-23.549q60.963-23.549 107.241-65.6t74.42-98.994q28.144-56.944 30.359-123.734l0.738-51.363q16.985-7.959 29.826-21.415t12.841-32.329v-92.39q0-18.871-12.841-32.327t-29.826-21.415v-53.087q0-27.815-20.143-47.139t-48.78-19.323h-282.257zM400.411 382.358q-13.211 0-23.015 8.986-9.806 8.985-9.806 22.194 0 13.211 9.806 22.606t23.015 9.394 23.014-9.394q9.806-9.395 9.806-22.606t-9.806-22.194q-9.805-8.986-23.014-8.986zM623.589 382.358q-13.21 0-23.014 8.986-9.806 8.985-9.806 22.194 0 13.211 9.806 22.606 9.805 9.394 23.014 9.394 13.211 0 23.015-9.394 9.806-9.395 9.806-22.606t-9.806-22.194q-9.805-8.986-23.015-8.986zM286.605 450.133q-5.825 95.836 61.702 163.364 67.529 67.529 165.826 67.529 82.626 0 146.42-49.6t77.908-130.339q-84.759 1.067-157.333 43.242-72.575 42.174-111.385 117.333-15.426-73.846-64.206-129.436t-118.933-82.093z" />
<glyph unicode="&#xe916;" glyph-name="troubleshoot_FILL0_wght200_GRAD0_opsz24" d="M899.446 68.102l-224.329 224.329q-47.015-38.236-96.944-58.667-49.927-20.431-112.943-20.431-86.154 0-157.333 40.78-71.18 40.779-113.518 108.554h52.841q38.729-48.492 95.057-77.58 56.327-29.087 122.954-29.087 114.871 0 196.102 81.231t81.231 196.102-81.231 196.102-196.102 81.231q-109.293 0-188.513-74.298t-87.754-181.702h-42.667q8.533 126.442 99.569 212.554 91.036 86.113 219.364 86.113 133.907 0 226.954-93.046t93.046-226.954q0-63.015-20.431-113.354t-58.667-97.354l223.508-223.508-30.195-31.015zM428.389 375.795l-75.405 250.585-65.313-186.585h-193.312v37.743h166.563l70.4 202.667h45.129l74.093-248.779 57.354 174.112h45.129l64-128h35.282v-37.743h-58.339l-60.8 121.599-60.718-185.599h-44.062z" />
<glyph unicode="&#xe917;" glyph-name="vpn_lock_FILL0_wght200_GRAD0_opsz24" d="M512 64q-80.082 0-150.154 29.907t-122.051 81.888q-51.98 51.979-81.888 122.051-29.907 70.071-29.907 150.154 0 80.329 29.907 150.277 29.908 69.949 81.888 121.929 51.979 51.979 122.051 81.887t150.154 29.907q34.133 0 65.6-5.62t62.4-15.22v-64.493q0-35.2-25.067-60.267t-60.267-25.067h-85.333v-85.333q0-18.133-12.267-30.4t-30.4-12.267h-85.333v-85.333h256q18.133 0 30.4-12.267t12.267-30.4v-128h42.667q28.8 0 50.667-17.067t30.4-42.667q41.6 45.293 65.6 104.246t24 126.154q0 11.733-0.246 21.333t-2.38 21.333h43.159q2.133-11.733 2.133-21.333v-21.333q0-80.082-29.907-150.154t-81.887-122.051-121.929-81.888q-69.949-29.907-150.277-29.907zM469.333 108.8v83.2q-35.2 0-60.267 25.067t-25.067 60.267v42.667l-204.8 204.8q-3.2-19.2-5.867-38.4t-2.667-38.4q0-130.626 85.867-226.913t212.8-112.287zM759.795 576q-14.851 0-24.657 9.805-9.805 9.806-9.805 24.657v124.718q0 14.851 9.805 24.656 9.806 9.806 24.657 9.806h8.205v42.667q0 31.918 21.785 53.702t53.702 21.785 53.702-21.785q21.786-21.785 21.786-53.702v-42.667h8.205q14.851 0 24.656-9.806 9.806-9.805 9.806-24.656v-124.718q0-14.851-9.806-24.657-9.805-9.805-24.656-9.805h-167.385zM800.82 769.642h85.333v42.667q0 18.133-12.267 30.4t-30.4 12.267-30.4-12.267-12.267-30.4v-42.667z" />
</font>
</defs>
</svg>
